<mxfile host="localhost" modified="2020-05-10T21:07:30.634Z" agent="5.0 (X11; Linux x86_64) AppleWebKit/537.36 (KHTML, like Gecko) Code/1.45.0 Chrome/78.0.3904.130 Electron/7.2.4 Safari/537.36" etag="7plBf8cf4zcQ26OtpByh" version="13.0.9">
    <diagram id="251szBdCZMuMVBTk2UhT" name="Page-1">
        <mxGraphModel dx="562" dy="438" grid="1" gridSize="10" guides="1" tooltips="1" connect="1" arrows="1" fold="1" page="1" pageScale="1" pageWidth="850" pageHeight="1100" math="0" shadow="0">
            <root>
                <mxCell id="0"/>
                <mxCell id="1" parent="0"/>
                <mxCell id="11" value="" style="group" parent="1" vertex="1" connectable="0">
                    <mxGeometry x="90" y="50" width="420" height="300" as="geometry"/>
                </mxCell>
                <mxCell id="7" style="edgeStyle=orthogonalEdgeStyle;rounded=0;orthogonalLoop=1;jettySize=auto;html=1;exitX=1;exitY=0.5;exitDx=0;exitDy=0;entryX=0.5;entryY=0;entryDx=0;entryDy=0;" parent="11" source="2" target="5" edge="1">
                    <mxGeometry relative="1" as="geometry">
                        <mxPoint x="207.58064516129033" y="108.51063829787233" as="targetPoint"/>
                    </mxGeometry>
                </mxCell>
                <mxCell id="2" value="&lt;font style=&quot;font-size: 18px&quot;&gt;Review&lt;/font&gt;" style="ellipse;whiteSpace=wrap;html=1;aspect=fixed;" parent="11" vertex="1">
                    <mxGeometry y="20" width="68.4863523573201" height="68.4863523573201" as="geometry"/>
                </mxCell>
                <mxCell id="3" value="&lt;font style=&quot;font-size: 18px&quot;&gt;Review&lt;/font&gt;" style="ellipse;whiteSpace=wrap;html=1;aspect=fixed;" parent="11" vertex="1">
                    <mxGeometry y="108.51063829787233" width="68.4863523573201" height="68.4863523573201" as="geometry"/>
                </mxCell>
                <mxCell id="17" style="edgeStyle=orthogonalEdgeStyle;rounded=0;orthogonalLoop=1;jettySize=auto;html=1;exitX=1;exitY=0.5;exitDx=0;exitDy=0;entryX=0.5;entryY=1;entryDx=0;entryDy=0;" parent="11" source="4" target="5" edge="1">
                    <mxGeometry relative="1" as="geometry"/>
                </mxCell>
                <mxCell id="4" value="&lt;font style=&quot;font-size: 18px&quot;&gt;Review&lt;/font&gt;" style="ellipse;whiteSpace=wrap;html=1;aspect=fixed;" parent="11" vertex="1">
                    <mxGeometry y="200.00425531914894" width="68.4863523573201" height="68.4863523573201" as="geometry"/>
                </mxCell>
                <mxCell id="5" value="&lt;font style=&quot;font-size: 14px&quot;&gt;Is Restaurant Good?&lt;/font&gt;" style="ellipse;whiteSpace=wrap;html=1;aspect=fixed;fontSize=20;" parent="11" vertex="1">
                    <mxGeometry x="168.31" y="101.06" width="83.38" height="83.38" as="geometry"/>
                </mxCell>
                <mxCell id="10" value="&lt;font style=&quot;font-size: 18px&quot;&gt;Most Likely&lt;/font&gt;" style="rounded=0;whiteSpace=wrap;html=1;" parent="11" vertex="1">
                    <mxGeometry x="301.94" y="123.59999999999998" width="118.06" height="38.3" as="geometry"/>
                </mxCell>
                <mxCell id="9" style="edgeStyle=orthogonalEdgeStyle;rounded=0;orthogonalLoop=1;jettySize=auto;html=1;exitX=1;exitY=0.5;exitDx=0;exitDy=0;" parent="11" source="5" target="10" edge="1">
                    <mxGeometry relative="1" as="geometry">
                        <mxPoint x="289.35483870967744" y="153.1914893617021" as="targetPoint"/>
                    </mxGeometry>
                </mxCell>
                <mxCell id="16" style="edgeStyle=orthogonalEdgeStyle;rounded=0;orthogonalLoop=1;jettySize=auto;html=1;exitX=1;exitY=0.5;exitDx=0;exitDy=0;" parent="1" source="3" edge="1">
                    <mxGeometry relative="1" as="geometry">
                        <mxPoint x="260" y="192.85714285714283" as="targetPoint"/>
                    </mxGeometry>
                </mxCell>
            </root>
        </mxGraphModel>
    </diagram>
</mxfile>